<svg width="20" height="20" viewBox="0 0 20 20" fill="none" xmlns="http://www.w3.org/2000/svg">
<path d="M15.8337 5V16.6667C15.8337 17.1087 15.6581 17.5326 15.3455 17.8452C15.0329 18.1577 14.609 18.3333 14.167 18.3333H5.83366C5.39163 18.3333 4.96771 18.1577 4.65515 17.8452C4.34259 17.5326 4.16699 17.1087 4.16699 16.6667V5" stroke="#FC0000" stroke-width="1.25" stroke-linecap="round" stroke-linejoin="round"/>
<path d="M2.5 5H17.5" stroke="#FC0000" stroke-width="1.25" stroke-linecap="round" stroke-linejoin="round"/>
<path d="M6.66699 4.9974V3.33073C6.66699 2.8887 6.84259 2.46478 7.15515 2.15222C7.46771 1.83966 7.89163 1.66406 8.33366 1.66406H11.667C12.109 1.66406 12.5329 1.83966 12.8455 2.15222C13.1581 2.46478 13.3337 2.8887 13.3337 3.33073V4.9974" stroke="#FC0000" stroke-width="1.25" stroke-linecap="round" stroke-linejoin="round"/>
</svg>
