<svg width="31" height="31" viewBox="0 0 31 31" fill="none" xmlns="http://www.w3.org/2000/svg">
<path d="M19.25 2.58203H8C7.33696 2.58203 6.70107 2.8542 6.23223 3.33867C5.76339 3.82314 5.5 4.48022 5.5 5.16536V25.832C5.5 26.5172 5.76339 27.1743 6.23223 27.6587C6.70107 28.1432 7.33696 28.4154 8 28.4154H23C23.663 28.4154 24.2989 28.1432 24.7678 27.6587C25.2366 27.1743 25.5 26.5172 25.5 25.832V9.04036L19.25 2.58203Z" stroke="#148057" stroke-width="1.5" stroke-linecap="round" stroke-linejoin="round"/>
<path d="M18 2.58203V7.7487C18 8.43384 18.2634 9.09092 18.7322 9.57539C19.2011 10.0599 19.837 10.332 20.5 10.332H25.5" stroke="#148057" stroke-width="1.5" stroke-linecap="round" stroke-linejoin="round"/>
<path d="M11.75 19.375H19.25" stroke="#148057" stroke-width="1.5" stroke-linecap="round" stroke-linejoin="round"/>
<path d="M15.5 23.25V15.5" stroke="#148057" stroke-width="1.5" stroke-linecap="round" stroke-linejoin="round"/>
</svg>
