<svg width="20" height="20" viewBox="0 0 20 20" fill="none" xmlns="http://www.w3.org/2000/svg">
<path d="M17.6443 5.67829C18.0849 5.23781 18.3325 4.64034 18.3325 4.01733C18.3326 3.39432 18.0852 2.79679 17.6447 2.3562C17.2042 1.91561 16.6068 1.66805 15.9838 1.66797C15.3607 1.66789 14.7632 1.91531 14.3226 2.35579L3.20096 13.48C3.00748 13.6729 2.86439 13.9104 2.78429 14.1716L1.68346 17.7983C1.66192 17.8704 1.6603 17.9469 1.67875 18.0198C1.69721 18.0927 1.73506 18.1593 1.78829 18.2125C1.84152 18.2656 1.90814 18.3033 1.98109 18.3217C2.05404 18.34 2.13059 18.3383 2.20263 18.3166L5.83013 17.2166C6.0911 17.1372 6.32861 16.995 6.52179 16.8025L17.6443 5.67829Z" stroke="#148057" stroke-width="1.25" stroke-linecap="round" stroke-linejoin="round"/>
<path d="M12.5 4.16797L15.8333 7.5013" stroke="#148057" stroke-width="1.25" stroke-linecap="round" stroke-linejoin="round"/>
</svg>
