<svg width="32" height="32" viewBox="0 0 32 32" fill="none" xmlns="http://www.w3.org/2000/svg">
<path fill-rule="evenodd" clip-rule="evenodd" d="M10.6669 26.667H2.96223C2.5249 26.667 2.11557 26.4523 1.86623 26.093C1.61757 25.7336 1.56023 25.275 1.71356 24.8656L3.37156 20.445C3.37423 20.437 3.37756 20.429 3.38023 20.4217L5.05157 15.965C5.34423 15.1843 6.09023 14.667 6.92423 14.667H25.0762C25.9102 14.667 26.6562 15.1843 26.9489 15.965L28.6202 20.4217C28.6229 20.429 28.6262 20.437 28.6289 20.445L30.2869 24.8656C30.4402 25.275 30.3829 25.7336 30.1342 26.093C29.8849 26.4523 29.4756 26.667 29.0382 26.667H18.0002V27.3337H19.3336C20.0702 27.3337 20.6669 27.9303 20.6669 28.667V29.3337C20.6669 30.0703 20.0702 30.667 19.3336 30.667H12.6669C11.9302 30.667 11.3336 30.0703 11.3336 29.3337V28.667C11.3336 27.9303 11.9302 27.3337 12.6669 27.3337H14.0002V26.667H10.6669ZM4.46223 21.3337L2.96223 25.3337H10.0889L10.6602 21.3337H4.46223ZM11.4222 16.0003H6.92423C6.64623 16.0003 6.39756 16.173 6.30023 16.433L4.96223 20.0003H10.8509L11.4222 16.0003ZM19.2316 16.0003H12.7689L12.1976 20.0003H19.8029L19.2316 16.0003ZM27.0382 20.0003L25.7002 16.433C25.6029 16.173 25.3542 16.0003 25.0762 16.0003H20.5782L21.1496 20.0003H27.0382ZM21.9116 25.3337H29.0382L27.5382 21.3337H21.3402L21.9116 25.3337ZM17.3336 25.3337H20.5649L19.9936 21.3337H12.0069L11.4356 25.3337H17.3336Z" fill="#39554C"/>
<path d="M16 1.33398C15.632 1.33398 15.3333 1.63265 15.3333 2.00065V2.66732C15.3333 3.03532 15.632 3.33398 16 3.33398C16.368 3.33398 16.6667 3.03532 16.6667 2.66732V2.00065C16.6667 1.63265 16.368 1.33398 16 1.33398Z" fill="#00925E"/>
<path d="M20.2427 3.09131C19.9827 2.83131 19.56 2.83131 19.3 3.09131L18.8287 3.56264C18.568 3.82264 18.568 4.24531 18.8287 4.50531C19.0887 4.76598 19.5113 4.76598 19.7713 4.50531L20.2427 4.03398C20.5027 3.77398 20.5027 3.35131 20.2427 3.09131Z" fill="#00925E"/>
<path d="M22 7.33398C22 6.96598 21.7013 6.66732 21.3333 6.66732H20.6667C20.2987 6.66732 20 6.96598 20 7.33398C20 7.70198 20.2987 8.00065 20.6667 8.00065H21.3333C21.7013 8.00065 22 7.70198 22 7.33398Z" fill="#00925E"/>
<path d="M20.2427 11.5767C20.5027 11.3167 20.5027 10.894 20.2427 10.634L19.7713 10.1626C19.5113 9.90197 19.0887 9.90197 18.8287 10.1626C18.568 10.4226 18.568 10.8453 18.8287 11.1053L19.3 11.5767C19.56 11.8367 19.9827 11.8367 20.2427 11.5767Z" fill="#00925E"/>
<path d="M16 13.334C16.368 13.334 16.6667 13.0353 16.6667 12.6673V12.0007C16.6667 11.6327 16.368 11.334 16 11.334C15.632 11.334 15.3333 11.6327 15.3333 12.0007V12.6673C15.3333 13.0353 15.632 13.334 16 13.334Z" fill="#00925E"/>
<path d="M11.7573 11.5767C12.0173 11.8367 12.44 11.8367 12.7 11.5767L13.1713 11.1053C13.432 10.8453 13.432 10.4226 13.1713 10.1626C12.9113 9.90197 12.4887 9.90197 12.2287 10.1626L11.7573 10.634C11.4973 10.894 11.4973 11.3167 11.7573 11.5767Z" fill="#00925E"/>
<path d="M10 7.33398C10 7.70198 10.2987 8.00065 10.6667 8.00065H11.3333C11.7013 8.00065 12 7.70198 12 7.33398C12 6.96598 11.7013 6.66732 11.3333 6.66732H10.6667C10.2987 6.66732 10 6.96598 10 7.33398Z" fill="#00925E"/>
<path d="M11.7573 3.09131C11.4973 3.35131 11.4973 3.77398 11.7573 4.03398L12.2287 4.50531C12.4887 4.76598 12.9113 4.76598 13.1713 4.50531C13.432 4.24531 13.432 3.82264 13.1713 3.56264L12.7 3.09131C12.44 2.83131 12.0173 2.83131 11.7573 3.09131Z" fill="#00925E"/>
<path d="M19.3333 7.33398C19.3333 5.49398 17.84 4.00065 16 4.00065C14.16 4.00065 12.6667 5.49398 12.6667 7.33398C12.6667 9.17398 14.16 10.6673 16 10.6673C17.84 10.6673 19.3333 9.17398 19.3333 7.33398Z" fill="#00925E"/>
</svg>
