<svg width="119" height="73" viewBox="0 0 119 73" fill="none" xmlns="http://www.w3.org/2000/svg">
<path d="M10 0H109L119 18H0L10 0Z" fill="#E4FDF4"/>
<path d="M0 18H119V73H0V18Z" fill="url(#paint0_linear_445_5517)"/>
<path d="M59.36 60.36C53.76 60.36 49.84 57.08 49.8 52.32H53.76C53.92 55.24 56.08 57.12 59.36 57.12C62.76 57.12 64.84 55.28 64.84 52.36C64.84 49.52 62.48 47.72 58.76 47.72H55.96V44.48H58.56C61.6 44.48 63.6 42.72 63.6 40.08C63.6 37.52 61.8 35.8 59.08 35.8C56.32 35.8 54.48 37.56 54.36 40.32H50.44C50.56 35.88 54.32 32.56 59.24 32.56C64.44 32.56 67.8 35.56 67.8 39.8C67.8 42.44 66.24 44.56 63.44 45.88C67 46.84 69.04 49.16 69.04 52.28C69.04 57.08 65.12 60.36 59.36 60.36Z" fill="url(#paint1_linear_445_5517)"/>
<defs>
<linearGradient id="paint0_linear_445_5517" x1="59.5" y1="-18.0345" x2="59.5" y2="73" gradientUnits="userSpaceOnUse">
<stop stop-color="#70F4C3"/>
<stop offset="1" stop-color="white"/>
</linearGradient>
<linearGradient id="paint1_linear_445_5517" x1="59.5" y1="17" x2="59.5" y2="73" gradientUnits="userSpaceOnUse">
<stop stop-color="#60C9A2"/>
<stop offset="1" stop-color="#E4FDF3"/>
</linearGradient>
</defs>
</svg>
