<svg width="121" height="30" viewBox="0 0 121 30" fill="none" xmlns="http://www.w3.org/2000/svg">
<path d="M20.3707 6.85541H4.07336V23.1489L0 19.0755V2.77814H14.2587V0.743408L20.3707 6.85541Z" fill="#131337"/>
<path d="M4.07324 23.1443H20.3706V6.85083L24.444 10.9242V27.2216H10.1852V29.2563L4.07324 23.1443Z" fill="#131337"/>
<path d="M19.3524 18.528C13.9238 18.528 12.5921 16.0637 11.6977 13.5369C11.1783 12.0723 11.0533 11.7248 9.2334 11.7248V7.81934C13.8106 7.81934 14.7908 10.5805 15.3766 12.2286C15.9429 13.822 16.228 14.6226 19.3524 14.6226V18.528Z" fill="#131337"/>
<path d="M80.3783 5.6228V17.054L84.1314 22.7208V5.6228H80.3783ZM80.3783 18.4873L79.5386 17.218L74.5358 9.6454L71.8801 5.6228H68.127V5.85713L71.8801 11.5239L75.9886 17.7296L80.3783 24.3611H84.1314V24.1541L80.3783 18.4873ZM68.127 7.28261V24.3611H71.8801V12.9533L68.127 7.28261Z" fill="#131337"/>
<path d="M116.05 16.3156C110.622 16.3156 109.29 13.8513 108.395 11.3245C107.876 9.85995 107.751 9.51236 105.931 9.51236V5.60693C110.508 5.60693 111.489 8.36807 112.074 10.0162C112.641 11.6096 112.926 12.4102 116.05 12.4102V16.3156Z" fill="#131337"/>
<path d="M38.2172 5.63818V9.72717L47.1229 9.72721V5.63822L38.2172 5.63818ZM34.606 5.63822V24.3609H38.6403V9.72721H38.6481V5.63822H34.606Z" fill="#131337"/>
<path d="M105.927 14.9916C105.927 20.2991 101.627 24.599 96.3232 24.599C91.0196 24.599 86.7158 20.2991 86.7158 14.9916C86.7158 9.68416 91.0157 5.38818 96.3232 5.38818C100.389 5.38818 103.865 7.915 105.263 11.4846H101.252C100.186 9.82475 98.3774 8.73514 96.3349 8.73514C93.0543 8.73514 90.3947 11.5353 90.3947 14.9916C90.3947 18.4479 93.0543 21.252 96.3349 21.252C98.9633 21.252 101.189 19.4555 101.974 16.9639H94.722V13.7927H105.852C105.903 14.1871 105.931 14.5855 105.931 14.9955L105.927 14.9916Z" fill="#131337"/>
<path d="M66.3685 14.9955C66.3685 9.68806 62.0687 5.38818 56.7651 5.38818C51.4576 5.38818 47.1577 9.68806 47.1577 14.9955C47.1577 20.2991 51.4576 24.599 56.7651 24.599C60.8306 24.599 64.3065 22.0722 65.7046 18.5026H61.6937C60.6275 20.1624 58.8193 21.252 56.7768 21.252C53.4962 21.252 50.8366 18.4518 50.8366 14.9955C50.8366 11.5392 53.4962 8.73514 56.7768 8.73514C59.4051 8.73514 61.6312 10.5316 62.4162 13.0233H55.1638V16.1945H66.2943C66.3451 15.8001 66.3724 15.4017 66.3724 14.9916L66.3685 14.9955Z" fill="#131337"/>
<path d="M120.885 5.6106V24.3371H108.407V20.1739H116.725V5.6106H120.885Z" fill="#131337"/>
</svg>
