<svg width="206" height="49" viewBox="0 0 206 49" fill="none" xmlns="http://www.w3.org/2000/svg">
<path d="M34.6847 10.4067H6.93561V38.1492L0 31.2136V3.46448H24.278V0L34.6847 10.4067Z" fill="#131337"/>
<path d="M6.93555 38.1409H34.6847V10.3984L41.6203 17.3341V45.0832H17.3423V48.5476L6.93555 38.1409Z" fill="#131337"/>
<path d="M32.9505 30.2822C23.7075 30.2822 21.4399 26.0863 19.9171 21.784C19.0327 19.2903 18.8199 18.6985 15.7212 18.6985V12.0488C23.5146 12.0488 25.1837 16.7502 26.1811 19.5563C27.1453 22.2694 27.6308 23.6326 32.9505 23.6326V30.2822Z" fill="#131337"/>
<path d="M136.857 8.30762V27.7712L143.247 37.4199V8.30762H136.857ZM136.857 30.2117L135.427 28.0505L126.909 15.1568L122.387 8.30762H115.997V8.7066L122.387 18.3553L129.383 28.9216L136.857 40.2128H143.247V39.8603L136.857 30.2117ZM115.997 11.1337V40.2128H122.387V20.7891L115.997 11.1337Z" fill="#131337"/>
<path d="M197.596 26.5147C188.352 26.5147 186.085 22.3187 184.562 18.0164C183.678 15.5227 183.465 14.9309 180.366 14.9309V8.28125C188.16 8.28125 189.829 12.9826 190.826 15.7887C191.79 18.5018 192.276 19.865 197.596 19.865V26.5147Z" fill="#131337"/>
<path d="M65.0712 8.33398V15.2962L80.2346 15.2963V8.33405L65.0712 8.33398ZM58.9224 8.33405V40.2126H65.7915V15.2963H65.8048V8.33405H58.9224Z" fill="#131337"/>
<path d="M180.358 24.2598C180.358 33.2967 173.036 40.618 164.006 40.618C154.976 40.618 147.648 33.2967 147.648 24.2598C147.648 15.2228 154.969 7.9082 164.006 7.9082C170.928 7.9082 176.847 12.2105 179.227 18.2884H172.398C170.583 15.4622 167.504 13.607 164.026 13.607C158.44 13.607 153.912 18.3748 153.912 24.2598C153.912 30.1447 158.44 34.9192 164.026 34.9192C168.501 34.9192 172.292 31.8603 173.628 27.6178H161.28V22.2183H180.231C180.318 22.8899 180.364 23.5682 180.364 24.2664L180.358 24.2598Z" fill="#131337"/>
<path d="M113.003 24.2664C113.003 15.2295 105.682 7.9082 96.6517 7.9082C87.6148 7.9082 80.2935 15.2295 80.2935 24.2664C80.2935 33.2967 87.6148 40.618 96.6517 40.618C103.574 40.618 109.492 36.3156 111.873 30.2378H105.044C103.228 33.0639 100.149 34.9192 96.6716 34.9192C91.0859 34.9192 86.5575 30.1514 86.5575 24.2664C86.5575 18.3814 91.0859 13.607 96.6716 13.607C101.147 13.607 104.937 16.6658 106.274 20.9083H93.9253V26.3079H112.877C112.963 25.6362 113.01 24.958 113.01 24.2598L113.003 24.2664Z" fill="#131337"/>
<path d="M205.827 8.28711V40.1723H184.581V33.0838H198.745V8.28711H205.827Z" fill="#131337"/>
</svg>
