<svg width="40" height="40" viewBox="0 0 40 40" fill="none" xmlns="http://www.w3.org/2000/svg">
<path d="M34.375 11.25H26.25V3.125C26.25 2.95924 26.1842 2.80027 26.0669 2.68306C25.9497 2.56585 25.7908 2.5 25.625 2.5H8.125C7.95924 2.5 7.80027 2.56585 7.68306 2.68306C7.56585 2.80027 7.5 2.95924 7.5 3.125V20.625C7.5 20.7908 7.56585 20.9497 7.68306 21.0669C7.80027 21.1842 7.95924 21.25 8.125 21.25H25V31.25H8.125C7.95924 31.25 7.80027 31.3158 7.68306 31.4331C7.56585 31.5503 7.5 31.7092 7.5 31.875V36.875C7.5 37.0408 7.56585 37.1997 7.68306 37.3169C7.80027 37.4342 7.95924 37.5 8.125 37.5H34.375C34.5408 37.5 34.6997 37.4342 34.8169 37.3169C34.9342 37.1997 35 37.0408 35 36.875V11.875C35 11.7092 34.9342 11.5503 34.8169 11.4331C34.6997 11.3158 34.5408 11.25 34.375 11.25Z" fill="#EEEEEE"/>
<path d="M25.625 20H5.625C5.27982 20 5 20.2798 5 20.625V31.875C5 32.2202 5.27982 32.5 5.625 32.5H25.625C25.9702 32.5 26.25 32.2202 26.25 31.875V20.625C26.25 20.2798 25.9702 20 25.625 20Z" fill="#EF5350"/>
<path d="M34.8188 11.431L26.0688 2.68098C25.9813 2.59284 25.8697 2.53272 25.7479 2.5083C25.6262 2.48389 25.5 2.49627 25.3853 2.54387C25.2707 2.59148 25.1728 2.67215 25.1042 2.7756C25.0356 2.87905 24.9993 3.00059 25 3.12473V11.8747C25 12.0405 25.0659 12.1995 25.1831 12.3167C25.3003 12.4339 25.4593 12.4997 25.625 12.4997H34.375C34.4992 12.5005 34.6207 12.4642 34.7241 12.3956C34.8276 12.3269 34.9083 12.2291 34.9559 12.1144C35.0035 11.9998 35.0159 11.8735 34.9914 11.7518C34.967 11.6301 34.9069 11.5184 34.8188 11.431Z" fill="#E0E0E0"/>
<path d="M9.375 28.7499V23.7499H11.0375C11.4643 23.7216 11.8868 23.8505 12.225 24.1124C12.3957 24.2609 12.5309 24.4458 12.6207 24.6535C12.7105 24.8612 12.7525 25.0864 12.7437 25.3124C12.74 25.6046 12.6556 25.8901 12.5 26.1374C12.3538 26.3812 12.1354 26.5735 11.875 26.6874C11.649 26.788 11.4035 26.8371 11.1563 26.8312H10.4062V28.7499H9.375ZM10.4313 25.9249H11.0187C11.2038 25.9347 11.3854 25.8719 11.525 25.7499C11.5868 25.6879 11.6349 25.6135 11.6661 25.5317C11.6973 25.4499 11.711 25.3624 11.7062 25.2749C11.7062 24.8916 11.4771 24.6999 11.0187 24.6999H10.4313V25.9249ZM13.7188 28.7499V23.7499H15.5938C16.0637 23.7334 16.5243 23.8839 16.8938 24.1749C17.1997 24.4238 17.4424 24.7416 17.6021 25.1022C17.7618 25.4628 17.8339 25.8561 17.8125 26.2499C17.8179 26.7085 17.7106 27.1613 17.5 27.5687C17.3029 27.9496 16.9988 28.2646 16.625 28.4749C16.1931 28.6823 15.7158 28.7769 15.2375 28.7499H13.7188ZM14.775 27.7999H15.45C15.6901 27.8087 15.9273 27.7456 16.1312 27.6187C16.3475 27.4563 16.5185 27.2412 16.628 26.994C16.7374 26.7467 16.7815 26.4754 16.7562 26.2062C16.7775 25.9531 16.7342 25.6988 16.6304 25.4671C16.5265 25.2353 16.3655 25.0337 16.1625 24.8812C15.9613 24.7533 15.7257 24.6901 15.4875 24.6999H14.775V27.7999ZM18.9 28.7499V23.7499H21.7625V24.6999H19.9563V25.7187H21.6125V26.6687H19.9563V28.7499H18.9Z" fill="white"/>
</svg>
