<svg width="32" height="32" viewBox="0 0 32 32" fill="none" xmlns="http://www.w3.org/2000/svg">
<path d="M23.476 14.3691H8.52398C7.85485 14.37 7.21338 14.6338 6.74024 15.1027C6.26709 15.5716 6.00089 16.2073 6 16.8705V25.4986C6.00089 26.1617 6.26709 26.7975 6.74024 27.2664C7.21338 27.7353 7.85485 27.9991 8.52398 28H23.476C24.1451 27.9991 24.7866 27.7353 25.2598 27.2664C25.7329 26.7975 25.9991 26.1617 26 25.4986V16.8705C25.9991 16.2073 25.7329 15.5716 25.2598 15.1027C24.7866 14.6338 24.1451 14.37 23.476 14.3691ZM24.3173 16.8705V20.3507H19.8869V16.0367H23.476C23.6992 16.0367 23.9132 16.1245 24.0709 16.2809C24.2287 16.4373 24.3173 16.6493 24.3173 16.8705ZM13.7957 20.3524V16.0383H18.2043V20.3524H13.7957ZM18.2043 22.02V26.3341H13.7957V22.02H18.2043ZM8.52398 16.0383H12.1131V20.3524H7.68265V16.8721C7.68265 16.651 7.77129 16.4389 7.92907 16.2826C8.08685 16.1262 8.30084 16.0383 8.52398 16.0383ZM7.68265 25.5003V22.02H12.1131V26.3341H8.52398C8.30084 26.3341 8.08685 26.2462 7.92907 26.0898C7.77129 25.9335 7.68265 25.7214 7.68265 25.5003ZM23.476 26.3341H19.8869V22.02H24.3173V25.5003C24.3173 25.7214 24.2287 25.9335 24.0709 26.0898C23.9132 26.2462 23.6992 26.3341 23.476 26.3341Z" fill="#39554C"/>
<path d="M20.5409 12.4623C20.6987 12.3059 20.7874 12.0938 20.7874 11.8727C20.7874 10.6144 20.283 9.40771 19.3852 8.51798C18.4875 7.62825 17.2699 7.1284 16.0002 7.1284C14.7306 7.1284 13.513 7.62825 12.6152 8.51798C11.7174 9.40771 11.2131 10.6144 11.2131 11.8727C11.2131 12.0938 11.3017 12.3059 11.4595 12.4623C11.6173 12.6187 11.8313 12.7065 12.0544 12.7065C12.2775 12.7065 12.4915 12.6187 12.6493 12.4623C12.8071 12.3059 12.8957 12.0938 12.8957 11.8727C12.8957 11.0567 13.2228 10.2741 13.805 9.69715C14.3872 9.12015 15.1769 8.796 16.0002 8.796C16.8236 8.796 17.6132 9.12015 18.1954 9.69715C18.7776 10.2741 19.1047 11.0567 19.1047 11.8727C19.1047 12.0938 19.1934 12.3059 19.3511 12.4623C19.5089 12.6187 19.7229 12.7065 19.946 12.7065C20.1692 12.7065 20.3832 12.6187 20.5409 12.4623Z" fill="#00925E"/>
<path d="M15.1589 4.8338V5.52251C15.1589 5.74365 15.2475 5.95573 15.4053 6.1121C15.5631 6.26846 15.7771 6.35631 16.0002 6.35631C16.2234 6.35631 16.4374 6.26846 16.5951 6.1121C16.7529 5.95573 16.8415 5.74365 16.8415 5.52251V4.8338C16.8415 4.61266 16.7529 4.40058 16.5951 4.24421C16.4374 4.08785 16.2234 4 16.0002 4C15.7771 4 15.5631 4.08785 15.4053 4.24421C15.2475 4.40058 15.1589 4.61266 15.1589 4.8338Z" fill="#00925E"/>
<path d="M18.822 5.36076L18.4737 5.95609L18.4754 5.95775C18.3656 6.14916 18.3366 6.37584 18.3948 6.58833C18.4531 6.80081 18.5937 6.98186 18.7861 7.09195C18.9785 7.20204 19.207 7.23224 19.4218 7.17596C19.6366 7.11969 19.8202 6.9815 19.9326 6.79155L20.2792 6.19455C20.3353 6.09969 20.3719 5.99477 20.387 5.88582C20.402 5.77687 20.3951 5.66605 20.3668 5.55975C20.3384 5.45344 20.2891 5.35374 20.2217 5.26639C20.1543 5.17904 20.0702 5.10576 19.9741 5.05078C19.878 4.9958 19.7719 4.9602 19.6618 4.94602C19.5518 4.93185 19.4401 4.93939 19.333 4.9682C19.2259 4.99701 19.1256 5.04652 19.0379 5.1139C18.9502 5.18127 18.8769 5.26516 18.822 5.36076Z" fill="#00925E"/>
<path d="M20.7353 8.48182C20.6775 8.69542 20.7078 8.923 20.8193 9.11451C20.9309 9.30556 21.1144 9.44497 21.3295 9.50217C21.5446 9.55938 21.7738 9.52971 21.9669 9.41968L22.571 9.07615C22.6668 9.02152 22.7508 8.94871 22.8182 8.86191C22.8856 8.7751 22.9351 8.67598 22.9638 8.57022C22.9925 8.46446 23 8.35412 22.9857 8.2455C22.9714 8.13689 22.9357 8.03212 22.8806 7.93719C22.8255 7.84225 22.752 7.75901 22.6644 7.69222C22.5768 7.62542 22.4768 7.57637 22.3701 7.54788C22.2634 7.51939 22.152 7.51201 22.0424 7.52616C21.9328 7.54031 21.8271 7.57571 21.7313 7.63035L21.1273 7.97554C20.934 8.08611 20.793 8.26823 20.7353 8.48182Z" fill="#00925E"/>
<path d="M23.101 11.0389H22.4061C22.1829 11.0389 21.9689 11.1268 21.8112 11.2831C21.6534 11.4395 21.5648 11.6516 21.5648 11.8727C21.5648 12.0938 21.6534 12.3059 21.8112 12.4623C21.9689 12.6187 22.1829 12.7065 22.4061 12.7065H23.101C23.3241 12.7065 23.5381 12.6187 23.6959 12.4623C23.8537 12.3059 23.9423 12.0938 23.9423 11.8727C23.9423 11.6516 23.8537 11.4395 23.6959 11.2831C23.5381 11.1268 23.3241 11.0389 23.101 11.0389Z" fill="#00925E"/>
<path d="M8.30452 11.2781C8.14674 11.4345 8.05811 11.6466 8.05811 11.8677C8.05811 12.0888 8.14674 12.3009 8.30452 12.4573C8.4623 12.6137 8.6763 12.7015 8.89943 12.7015H9.59437C9.8175 12.7015 10.0315 12.6137 10.1893 12.4573C10.3471 12.3009 10.4357 12.0888 10.4357 11.8677C10.4357 11.6466 10.3471 11.4345 10.1893 11.2781C10.0315 11.1218 9.8175 11.0339 9.59437 11.0339H8.89943C8.6763 11.0339 8.4623 11.1218 8.30452 11.2781Z" fill="#00925E"/>
<path d="M9.34083 7.6867C9.25321 7.7536 9.17983 7.83704 9.12491 7.93219C9.0132 8.12349 8.98272 8.35092 9.04014 8.56449C9.09757 8.77806 9.23821 8.9603 9.43115 9.07115L10.0335 9.41634C10.2268 9.52713 10.4565 9.55731 10.6722 9.50024C10.8879 9.44316 11.0718 9.30351 11.1836 9.11201C11.2954 8.9205 11.3259 8.69283 11.2683 8.47908C11.2107 8.26532 11.0698 8.083 10.8765 7.97221L10.2742 7.62702C10.1786 7.57183 10.0729 7.53593 9.96332 7.52141C9.85368 7.50688 9.74224 7.51401 9.6354 7.54238C9.52856 7.57075 9.42845 7.6198 9.34083 7.6867Z" fill="#00925E"/>
<path d="M11.644 5.56065C11.5858 5.77313 11.6148 5.99981 11.7246 6.19122L12.0729 6.78822C12.1251 6.88832 12.1972 6.97691 12.2848 7.04864C12.3725 7.12036 12.4739 7.17374 12.583 7.20553C12.6921 7.23733 12.8065 7.24689 12.9194 7.23364C13.0323 7.22039 13.1413 7.1846 13.2399 7.12844C13.3384 7.07227 13.4244 6.9969 13.4928 6.90686C13.5611 6.81682 13.6103 6.71399 13.6375 6.60458C13.6646 6.49517 13.6691 6.38144 13.6506 6.27027C13.6322 6.1591 13.5912 6.05279 13.5301 5.95775L13.1818 5.35742C13.0694 5.16748 12.8858 5.02929 12.671 4.97301C12.4562 4.91673 12.2277 4.94693 12.0353 5.05703C11.8429 5.16712 11.7023 5.34816 11.644 5.56065Z" fill="#00925E"/>
</svg>
