<svg width="120" height="110" viewBox="0 0 120 110" fill="none" xmlns="http://www.w3.org/2000/svg">
<path opacity="0.3" d="M62.1992 109.601C88.1566 109.601 109.199 88.558 109.199 62.6006C109.199 36.6432 88.1566 15.6006 62.1992 15.6006C36.2418 15.6006 15.1992 36.6432 15.1992 62.6006C15.1992 88.558 36.2418 109.601 62.1992 109.601Z" fill="#71F4C3"/>
<path d="M31.8991 86.2L53.615 26.5693L95.2622 70.6049L41.6683 95.2073C35.8569 97.875 29.711 92.2084 31.8991 86.2Z" fill="#36534A"/>
<ellipse cx="74.9051" cy="48.3157" rx="6.95069" ry="30.4656" transform="rotate(-43.1847 74.9051 48.3157)" fill="black"/>
<mask id="mask0_2345_3866" style="mask-type:alpha" maskUnits="userSpaceOnUse" x="31" y="26" width="65" height="70">
<path d="M31.8991 86.2L53.615 26.5693L95.2622 70.6049L41.6683 95.2073C35.8569 97.875 29.711 92.2084 31.8991 86.2Z" fill="#32C2ED"/>
</mask>
<g mask="url(#mask0_2345_3866)">
<path fill-rule="evenodd" clip-rule="evenodd" d="M52.6889 62.6291C44.3448 51.7017 40.1229 38.6742 38.7612 29.9279L45.4803 28.8818C46.706 36.7546 50.5747 48.6558 58.0934 58.5022C65.5413 68.256 76.4379 75.8621 91.9779 75.8621V82.6621C73.842 82.6621 61.1037 73.6491 52.6889 62.6291Z" fill="black"/>
<path fill-rule="evenodd" clip-rule="evenodd" d="M53.5849 60.5392C45.2408 49.6118 41.0189 36.5844 39.6572 27.8381L46.3763 26.792C47.602 34.6648 51.4707 46.5659 58.9894 56.4123C66.4373 66.1661 77.3339 73.7722 92.8739 73.7722V80.5722C74.738 80.5722 61.9997 71.5593 53.5849 60.5392Z" fill="white"/>
<path fill-rule="evenodd" clip-rule="evenodd" d="M42.8373 76.3624C34.4932 65.435 30.2714 52.4076 28.9097 43.6613L35.6287 42.6152C36.8544 50.488 40.7232 62.3892 48.2418 72.2356C55.6897 81.9894 66.5863 89.5955 82.1264 89.5955V96.3955C63.9905 96.3955 51.2521 87.3825 42.8373 76.3624Z" fill="white"/>
</g>
<circle cx="71.9995" cy="85.2002" r="12" fill="#009E69"/>
<path fill-rule="evenodd" clip-rule="evenodd" d="M76.8551 81.559C77.3197 82.0316 77.3132 82.7914 76.8405 83.256L71.1436 88.856C70.6767 89.3149 69.928 89.3149 69.4611 88.856L67.1581 86.5921C66.6855 86.1276 66.6789 85.3678 67.1435 84.8952C67.6081 84.4225 68.3679 84.416 68.8405 84.8806L70.3023 86.3175L75.1581 81.5444C75.6307 81.0798 76.3905 81.0863 76.8551 81.559Z" fill="white"/>
<path fill-rule="evenodd" clip-rule="evenodd" d="M95.6501 27.9808C96.491 25.845 96.7404 23.713 97.106 21.4813C97.1773 21.0454 96.8813 20.6355 96.4456 20.5637C96.0095 20.4918 95.5979 20.7881 95.5263 21.224C95.1797 23.3402 94.9587 25.3686 94.1604 27.3974C93.9988 27.8078 94.2017 28.2723 94.613 28.4321C95.0237 28.5945 95.4888 28.3912 95.6501 27.9808Z" fill="black"/>
<path fill-rule="evenodd" clip-rule="evenodd" d="M99.7053 32.8817C103.853 30.0085 107.917 26.1419 110.938 22.0926C111.201 21.7389 111.127 21.2379 110.773 20.9758C110.418 20.7136 109.917 20.7859 109.653 21.1396C106.732 25.0547 102.802 28.7944 98.7917 31.5706C98.4291 31.8226 98.3395 32.3204 98.5917 32.6815C98.8439 33.0427 99.3427 33.1337 99.7053 32.8817Z" fill="black"/>
<path fill-rule="evenodd" clip-rule="evenodd" d="M100.149 36.6873C103.455 37.6966 107.067 37.2147 110.32 36.285C110.745 36.1622 110.991 35.7202 110.869 35.2987C110.747 34.8745 110.303 34.6298 109.879 34.7501C106.915 35.5979 103.627 36.0803 100.616 35.1615C100.194 35.0324 99.7459 35.2703 99.6172 35.6904C99.4882 36.1105 99.7264 36.5583 100.149 36.6873Z" fill="black"/>
<ellipse cx="100.399" cy="42.4" rx="2.4" ry="2.4" fill="black"/>
<ellipse cx="80.3985" cy="17.6002" rx="2.4" ry="2.4" fill="#36534A"/>
<path d="M85.0153 28.1842C84.8082 27.3266 83.5884 27.3266 83.3814 28.1842L83.1132 29.2951C83.0392 29.6016 82.7999 29.8408 82.4935 29.9148L81.3826 30.183C80.525 30.39 80.525 31.6099 81.3826 31.8169L82.4935 32.085C82.7999 32.159 83.0392 32.3983 83.1132 32.7048L83.3814 33.8156C83.5884 34.6733 84.8082 34.6733 85.0153 33.8156L85.2834 32.7048C85.3574 32.3983 85.5967 32.159 85.9032 32.085L87.014 31.8169C87.8716 31.6099 87.8716 30.39 87.014 30.183L85.9032 29.9148C85.5967 29.8408 85.3574 29.6016 85.2834 29.2951L85.0153 28.1842Z" fill="#36534A"/>
<path fill-rule="evenodd" clip-rule="evenodd" d="M74.7846 9.72435C75.0271 10.3411 74.7237 11.0377 74.107 11.2803C72.3465 11.9725 70.0903 14.2024 68.584 16.9779C67.4373 19.0906 66.8804 21.2243 67.1142 22.9704C67.8187 21.9649 68.662 21.14 69.6402 20.6102C71.3937 19.6604 73.3943 19.7612 75.3312 21.0811C77.0235 22.2344 77.7137 23.8754 77.5309 25.5105C77.3562 27.0739 76.4025 28.4871 75.1088 29.375C73.7956 30.2762 72.052 30.6917 70.2535 30.1409C69.2339 29.8287 68.2561 29.225 67.3612 28.3083C66.5076 31.6316 66.5383 35.7944 67.9492 39.4761C68.1864 40.095 67.877 40.7889 67.2581 41.0261C66.6393 41.2632 65.9453 40.9538 65.7082 40.3349C63.8475 35.4794 64.0892 29.934 65.6065 25.8952C65.5634 25.8173 65.5207 25.7384 65.4783 25.6584C63.8821 22.6446 64.8378 18.849 66.4746 15.8331C68.1241 12.7939 70.7398 10.0255 73.2287 9.04674C73.8454 8.80421 74.542 9.10758 74.7846 9.72435ZM68.3013 25.6889C69.2075 26.9764 70.1478 27.5986 70.9562 27.8461C71.9741 28.1578 72.9666 27.9343 73.7508 27.3962C74.5543 26.8448 75.0592 26.0186 75.1458 25.2439C75.2243 24.5409 74.9787 23.7451 73.9797 23.0644C72.7135 22.2015 71.6737 22.2382 70.7833 22.7205C69.8955 23.2014 69.0165 24.2077 68.3013 25.6889Z" fill="#009E69"/>
<path fill-rule="evenodd" clip-rule="evenodd" d="M113.522 56.6566C100.944 51.9814 91.3175 57.7948 88.2049 61.0828C87.4455 61.885 86.1796 61.9197 85.3775 61.1603C84.5753 60.4009 84.5407 59.1351 85.3 58.3329C89.253 54.1573 100.505 47.5512 114.915 52.9072C115.951 53.292 116.478 54.4433 116.093 55.4787C115.709 56.514 114.557 57.0414 113.522 56.6566Z" fill="#36534A"/>
<path fill-rule="evenodd" clip-rule="evenodd" d="M100.726 60.8595C101.007 60.7567 101.302 60.6201 101.53 60.4223C101.8 60.1874 101.91 59.8849 101.984 59.5665C102.079 59.1574 102.117 58.7215 102.232 58.3118C102.275 58.1596 102.357 58.1021 102.392 58.0765C102.481 58.012 102.57 57.9948 102.655 58.0013C102.755 58.0087 102.893 58.0477 102.983 58.2202C102.996 58.2449 103.013 58.2826 103.024 58.3341C103.032 58.3719 103.038 58.4901 103.046 58.5389C103.068 58.6589 103.086 58.7789 103.104 58.8996C103.161 59.3012 103.193 59.6424 103.373 60.0114C103.617 60.5124 103.862 60.8189 104.193 60.9546C104.514 61.0859 104.898 61.0612 105.388 60.9583C105.434 60.9467 105.48 60.9367 105.526 60.9286C105.742 60.8898 105.948 61.0355 105.991 61.2567C106.033 61.4776 105.896 61.693 105.682 61.7415C105.637 61.7517 105.593 61.7613 105.55 61.7701C104.888 61.9385 104.121 62.5396 103.676 63.0659C103.539 63.2282 103.338 63.6819 103.132 63.9713C102.981 64.1848 102.811 64.3256 102.668 64.3753C102.573 64.4088 102.492 64.4037 102.425 64.3867C102.329 64.3622 102.248 64.3083 102.187 64.2226C102.153 64.1757 102.122 64.1129 102.107 64.0327C102.1 63.994 102.099 63.8959 102.099 63.8515C102.058 63.7038 102.006 63.5595 101.969 63.4105C101.88 63.0549 101.706 62.8298 101.499 62.5324C101.305 62.2541 101.097 62.0792 100.792 61.9396C100.752 61.9297 100.432 61.8491 100.319 61.8029C100.154 61.7351 100.075 61.6215 100.046 61.5604C99.9979 61.4566 99.9929 61.3659 100.003 61.2903C100.017 61.1788 100.066 61.0833 100.152 61.0062C100.206 60.9583 100.286 60.9117 100.393 60.889C100.476 60.8712 100.695 60.861 100.726 60.8595ZM102.604 60.2799C102.619 60.3139 102.635 60.3481 102.652 60.3826C103.009 61.1163 103.409 61.5259 103.895 61.7246L103.911 61.7311C103.586 61.9791 103.292 62.2563 103.067 62.522C102.975 62.6314 102.852 62.8587 102.719 63.0917C102.599 62.6898 102.402 62.4056 102.155 62.05C101.966 61.7787 101.768 61.5745 101.524 61.408C101.713 61.3084 101.893 61.1917 102.05 61.0554C102.312 60.8285 102.484 60.5656 102.604 60.2799Z" fill="#009E69"/>
<path d="M30.2663 61.0081C30.5163 60.783 30.902 60.8042 31.1256 61.0558C31.3508 61.3073 31.3294 61.6948 31.0796 61.9198C29.6067 63.2448 28.7317 64.8637 28.4148 66.7896L28.3587 67.1784C28.3185 67.5132 28.0141 67.751 27.6794 67.709L27.6785 67.7092C27.3461 67.6667 27.1079 67.3606 27.1501 67.0256C27.4461 64.6295 28.4698 62.6249 30.2663 61.0081Z" fill="black" stroke="black" stroke-width="0.3"/>
<path d="M-1.78953 64.9109C1.46781 62.945 5.52589 63.6761 7.94123 66.6256C8.20238 66.2934 8.48429 65.9773 8.78432 65.6809C12.032 62.4751 17.5412 62.4774 22.2532 65.6816C23.0054 66.1934 23.663 67.0148 24.2322 68.023C24.8021 69.0326 25.2898 70.2388 25.6996 71.5318C26.5221 74.1262 27.0557 77.0807 27.4008 79.4144C27.6784 78.2363 28.0245 77.082 28.4082 75.925C30.195 70.541 31.8824 64.8584 35.5411 60.3574L35.5421 60.3572C35.7558 60.0964 36.1398 60.0567 36.3998 60.2717L36.3988 60.2718C36.6602 60.4859 36.6973 60.8717 36.4858 61.1322C32.9413 65.4939 31.3227 71.0138 29.5646 76.3127C29.0823 77.7659 28.6621 79.2079 28.3698 80.6977L28.2525 81.3397C28.186 81.7276 28.1179 82.11 28.0623 82.4939L28.0113 82.878C28.0099 82.8913 28.0117 82.9189 28.0231 82.9701C28.0318 83.009 28.0511 83.0818 28.0615 83.135L28.0619 83.1369C28.091 83.295 28.1114 83.459 28.0991 83.5899L28.0983 83.591C28.074 83.8301 27.9645 84.0092 27.8095 84.1261L27.8085 84.1263C27.6946 84.2111 27.5462 84.2721 27.3537 84.2686L27.3518 84.269C27.2156 84.265 26.9984 84.2253 26.844 83.9777L26.8441 83.9787C26.8275 83.9528 26.8143 83.9176 26.8037 83.8873C26.7916 83.8527 26.7783 83.8085 26.7648 83.7561C26.7377 83.6507 26.7081 83.5071 26.6839 83.3269L26.6838 83.326C26.4954 81.8992 26.0094 77.0432 24.8127 72.8189C24.4286 71.4625 23.9796 70.1745 23.4432 69.1015C22.9058 68.0262 22.2878 67.1811 21.5724 66.6942C17.3423 63.8177 12.4752 63.7552 9.63879 66.5534C9.27318 66.9142 8.93982 67.3067 8.64333 67.7254C8.75626 68.0288 8.86149 68.4253 8.92217 68.8378C8.98807 69.2858 9.00566 69.7638 8.92492 70.1647C8.84015 70.5847 8.64922 70.9373 8.34986 71.1524C8.03655 71.3779 7.60874 71.4671 7.05315 71.2878C6.59152 71.1384 6.36842 70.7474 6.33507 70.2856C6.30296 69.8601 6.45054 69.35 6.53807 69.1125C6.72115 68.6146 6.95122 68.1369 7.21807 67.6826C5.15506 64.8888 1.44325 64.2079 -1.43008 66.131L-1.43104 66.1312C-1.71222 66.3187 -2.08887 66.2413 -2.27633 65.9615L-2.27745 65.9607C-2.46228 65.6806 -2.38877 65.3012 -2.10809 65.1135L-1.78953 64.9109ZM7.67957 69.5372C7.63327 69.6639 7.56129 69.897 7.54983 70.108C7.5494 70.1199 7.55008 70.1365 7.55164 70.1561C7.57058 70.1599 7.58654 70.1626 7.60025 70.1632C7.62733 70.1643 7.63578 70.1596 7.638 70.1581L7.63881 70.157C7.65354 70.1464 7.67011 70.1269 7.68674 70.0859C7.70396 70.0434 7.71738 69.9895 7.73134 69.9205C7.76676 69.7466 7.77288 69.5436 7.76148 69.3331C7.73413 69.4009 7.70525 69.4683 7.67957 69.5372Z" fill="black" stroke="black" stroke-width="0.3"/>
</svg>
